<?xml version="1.0" encoding="UTF-8" standalone="no"?>
<!-- Created with Inkscape (http://www.inkscape.org/) -->

<svg
   xmlns:dc="http://purl.org/dc/elements/1.1/"
   xmlns:cc="http://creativecommons.org/ns#"
   xmlns:rdf="http://www.w3.org/1999/02/22-rdf-syntax-ns#"
   xmlns:svg="http://www.w3.org/2000/svg"
   xmlns="http://www.w3.org/2000/svg"
   xmlns:sodipodi="http://sodipodi.sourceforge.net/DTD/sodipodi-0.dtd"
   xmlns:inkscape="http://www.inkscape.org/namespaces/inkscape"
   width="80"
   height="80"
   viewBox="0 0 169.33333 0"
   version="1.1"
   id="svg8"
   inkscape:version="0.91 r13725"
   sodipodi:docname="logo.svg">
  <defs
     id="defs2" />
  <sodipodi:namedview
     id="base"
     pagecolor="#ffffff"
     bordercolor="#666666"
     borderopacity="1.0"
     inkscape:pageopacity="0.0"
     inkscape:pageshadow="2"
     inkscape:zoom="5.6"
     inkscape:cx="-9.4642857"
     inkscape:cy="35.692181"
     inkscape:document-units="mm"
     inkscape:current-layer="layer1"
     showgrid="false"
     units="px"
     inkscape:window-width="1571"
     inkscape:window-height="981"
     inkscape:window-x="2111"
     inkscape:window-y="1"
     inkscape:window-maximized="0" />
  <metadata
     id="metadata5">
    <rdf:RDF>
      <cc:Work
         rdf:about="">
        <dc:format>image/svg+xml</dc:format>
        <dc:type
           rdf:resource="http://purl.org/dc/dcmitype/StillImage" />
        <dc:title />
      </cc:Work>
    </rdf:RDF>
  </metadata>
  <g
     inkscape:label="Layer 1"
     inkscape:groupmode="layer"
     id="layer1"
     transform="translate(0,-416.99998)" />
  <g
     inkscape:groupmode="layer"
     id="layer2"
     inkscape:label="Layer 2"
     transform="translate(0,-399.39998)">
    <path
       style="fill:none;stroke:#000000;stroke-width:0.26458332px;stroke-linecap:butt;stroke-linejoin:miter;stroke-opacity:1"
       d="m 14.564761,415.81046 c -0.57037,3.05724 1.38162,5.67618 4.86644,6.68545 10.42005,2.83728 11.93887,11.46202 11.76451,13.53629 -0.17363,1.90044 0.10956,2.29002 2.24423,2.95292 l -7.55952,-0.0709 c -6.8507,-0.21067 -8.27186,-3.9769 -12.85119,-11.74089 -0.29435,-0.54292 -3.029229,-8.70802 1.53553,-11.36287 z"
       id="path4509"
       inkscape:connector-curvature="0"
       sodipodi:nodetypes="ccccccc" />
    <path
       style="fill:none;stroke:#000000;stroke-width:0.26458332px;stroke-linecap:butt;stroke-linejoin:miter;stroke-opacity:1"
       d="m 17.859121,415.89095 c -0.57037,3.05724 1.38162,5.67618 4.86644,6.68545 10.42005,2.83728 11.93888,11.46202 11.76451,13.53629 -0.17363,1.90044 0.10956,2.29002 2.24424,2.95292 l -7.55953,-0.0709 c -6.8507,-0.21067 -8.27186,-3.9769 -12.85119,-11.74089 -0.29435,-0.54292 -3.02923,-8.70802 1.53553,-11.36287 z"
       id="path4509-3"
       inkscape:connector-curvature="0"
       sodipodi:nodetypes="ccccccc" />
    <path
       style="fill:none;stroke:#000000;stroke-width:0.26458332px;stroke-linecap:butt;stroke-linejoin:miter;stroke-opacity:1"
       d="m 21.066361,415.89095 c -0.57038,3.05724 1.38161,5.67619 4.86644,6.68546 10.42005,2.83728 11.93887,11.46201 11.76451,13.53628 -0.17363,1.90044 0.10955,2.29002 2.24423,2.95292 l -7.55952,-0.0709 c -6.85071,-0.21067 -8.27186,-3.9769 -12.85119,-11.74089 -0.29436,-0.54292 -3.02924,-8.70801 1.53553,-11.36287 z"
       id="path4509-1"
       inkscape:connector-curvature="0"
       sodipodi:nodetypes="ccccccc" />
    <path
       style="fill:none;stroke:#000000;stroke-width:0.26458332px;stroke-linecap:butt;stroke-linejoin:miter;stroke-opacity:1"
       d="m 65.318321,415.81046 c 0.57037,3.05724 -1.38161,5.67618 -4.86644,6.68545 -10.42005,2.83728 -11.93887,11.46202 -11.76451,13.53629 0.17363,1.90044 -0.10955,2.29002 -2.24423,2.95292 l 7.55952,-0.0709 c 6.8507,-0.21067 8.27186,-3.9769 12.85119,-11.74089 0.29435,-0.54292 3.02923,-8.70802 -1.53553,-11.36287 z"
       id="path4509-39"
       inkscape:connector-curvature="0"
       sodipodi:nodetypes="ccccccc" />
    <path
       style="fill:none;stroke:#000000;stroke-width:0.26458332px;stroke-linecap:butt;stroke-linejoin:miter;stroke-opacity:1"
       d="m 62.023961,415.89095 c 0.57037,3.05724 -1.38161,5.67618 -4.86644,6.68545 -10.42004,2.83728 -11.93887,11.46202 -11.7645,13.53629 0.17363,1.90044 -0.10956,2.29002 -2.24424,2.95292 l 7.55953,-0.0709 c 6.85069,-0.21067 8.27185,-3.9769 12.85118,-11.74089 0.29435,-0.54292 3.02923,-8.70802 -1.53553,-11.36287 z"
       id="path4509-3-6"
       inkscape:connector-curvature="0"
       sodipodi:nodetypes="ccccccc" />
    <path
       style="fill:none;stroke:#000000;stroke-width:0.26458332px;stroke-linecap:butt;stroke-linejoin:miter;stroke-opacity:1"
       d="m 58.816731,415.89095 c 0.57037,3.05724 -1.38162,5.67619 -4.86644,6.68546 -10.42005,2.83728 -11.93888,11.46201 -11.76451,13.53628 0.17363,1.90044 -0.10956,2.29002 -2.24424,2.95292 l 7.55953,-0.0709 c 6.8507,-0.21067 8.27186,-3.9769 12.85119,-11.74089 0.29435,-0.54292 3.02923,-8.70801 -1.53553,-11.36287 z"
       id="path4509-1-6"
       inkscape:connector-curvature="0"
       sodipodi:nodetypes="ccccccc" />
    <path
       style="fill:none;stroke:#000000;stroke-width:0.26458332px;stroke-linecap:butt;stroke-linejoin:miter;stroke-opacity:1"
       d="m 14.564761,462.32077 c -0.57037,-3.05725 1.38161,-5.67619 4.86644,-6.68546 10.42005,-2.83728 11.93887,-11.46202 11.76451,-13.53629 -0.17363,-1.90044 0.10956,-2.29002 2.24423,-2.95292 l -7.55952,0.0709 c -6.8507,0.21067 -8.27186,3.9769 -12.85119,11.74089 -0.29435,0.54292 -3.029229,8.70802 1.53553,11.36288 z"
       id="path4509-17"
       inkscape:connector-curvature="0"
       sodipodi:nodetypes="ccccccc" />
    <path
       style="fill:none;stroke:#000000;stroke-width:0.26458332px;stroke-linecap:butt;stroke-linejoin:miter;stroke-opacity:1"
       d="m 17.859121,462.24028 c -0.57037,-3.05725 1.38162,-5.67619 4.86644,-6.68546 10.42005,-2.83728 11.93888,-11.46202 11.76451,-13.53629 -0.17363,-1.90044 0.10956,-2.29002 2.24424,-2.95292 l -7.55953,0.0709 c -6.8507,0.21067 -8.27186,3.9769 -12.85119,11.74089 -0.29435,0.54292 -3.02923,8.70802 1.53553,11.36288 z"
       id="path4509-3-5"
       inkscape:connector-curvature="0"
       sodipodi:nodetypes="ccccccc" />
    <path
       style="fill:none;stroke:#000000;stroke-width:0.26458332px;stroke-linecap:butt;stroke-linejoin:miter;stroke-opacity:1"
       d="m 21.066351,462.24028 c -0.57037,-3.05725 1.38162,-5.6762 4.86645,-6.68547 10.42005,-2.83728 11.93887,-11.46201 11.76451,-13.53628 -0.17363,-1.90044 0.10955,-2.29002 2.24423,-2.95292 l -7.55952,0.0709 c -6.85071,0.21067 -8.27186,3.9769 -12.8512,11.74089 -0.29435,0.54292 -3.02923,8.70801 1.53553,11.36288 z"
       id="path4509-1-7"
       inkscape:connector-curvature="0"
       sodipodi:nodetypes="ccccccc" />
    <path
       style="fill:none;stroke:#000000;stroke-width:0.26458332px;stroke-linecap:butt;stroke-linejoin:miter;stroke-opacity:1"
       d="m 65.318321,462.32077 c 0.57037,-3.05725 -1.38161,-5.67619 -4.86644,-6.68546 -10.42005,-2.83728 -11.93887,-11.46202 -11.76451,-13.53629 0.17363,-1.90044 -0.10955,-2.29002 -2.24423,-2.95292 l 7.55952,0.0709 c 6.8507,0.21067 8.27186,3.9769 12.8512,11.74089 0.29434,0.54292 3.02922,8.70802 -1.53554,11.36288 z"
       id="path4509-39-2"
       inkscape:connector-curvature="0"
       sodipodi:nodetypes="ccccccc" />
    <path
       style="fill:none;stroke:#000000;stroke-width:0.26458332px;stroke-linecap:butt;stroke-linejoin:miter;stroke-opacity:1"
       d="m 62.023961,462.24028 c 0.57037,-3.05725 -1.38161,-5.67619 -4.86644,-6.68546 -10.42004,-2.83728 -11.93887,-11.46202 -11.7645,-13.53629 0.17363,-1.90044 -0.10956,-2.29002 -2.24424,-2.95292 l 7.55953,0.0709 c 6.85069,0.21067 8.27185,3.9769 12.85118,11.74089 0.29436,0.54292 3.02923,8.70802 -1.53553,11.36288 z"
       id="path4509-3-6-9"
       inkscape:connector-curvature="0"
       sodipodi:nodetypes="ccccccc" />
    <path
       style="fill:none;stroke:#000000;stroke-width:0.26458332px;stroke-linecap:butt;stroke-linejoin:miter;stroke-opacity:1"
       d="m 58.816731,462.24028 c 0.57037,-3.05725 -1.38162,-5.6762 -4.86645,-6.68547 -10.42004,-2.83728 -11.93887,-11.46201 -11.7645,-13.53628 0.17363,-1.90044 -0.10956,-2.29002 -2.24424,-2.95292 l 7.55953,0.0709 c 6.8507,0.21067 8.27186,3.9769 12.85119,11.74089 0.29435,0.54292 3.02924,8.70801 -1.53553,11.36288 z"
       id="path4509-1-6-1"
       inkscape:connector-curvature="0"
       sodipodi:nodetypes="ccccccc" />
    <path
       style="fill:none;fill-rule:evenodd;stroke:#000000;stroke-width:0.28222221px;stroke-linecap:butt;stroke-linejoin:miter;stroke-opacity:1"
       d="m 39.880111,463.81217 c -1.97205,-2.61026 -2.66658,-5.69959 -3.13596,-8.87335 l 2.15597,-1.69271 -2.93997,-0.81963 c 4.04963,-0.32426 3.2408,-5.1751 3.91996,-8.17845 0.94578,2.97226 -0.51793,7.81188 3.81304,8.16063 l -2.93996,0.83745 2.2807,1.72834 c -0.49448,3.0493 -1.33003,6.26316 -3.15378,8.83772 z"
       id="path4148"
       inkscape:connector-curvature="0"
       sodipodi:nodetypes="ccccccccc" />
    <path
       style="fill:none;fill-rule:evenodd;stroke:#000000;stroke-width:0.28222221px;stroke-linecap:butt;stroke-linejoin:miter;stroke-opacity:1"
       d="m 35.755771,463.31273 c -1.38625,-2.96322 -1.42329,-6.12945 -1.22256,-9.33145 l 2.4608,-1.20746 -2.70531,-1.41298 c 4.02854,0.5248 4.24594,-4.3882 5.53468,-7.18472 0.30716,3.10395 -2.13078,7.53349 2.03304,8.77507 l -3.04984,0.20791 1.87152,2.16475 c -1.11766,2.87986 -2.60315,5.84977 -4.92233,7.98888 z"
       id="path4148-9"
       inkscape:connector-curvature="0"
       sodipodi:nodetypes="ccccccccc" />
    <path
       style="fill:none;fill-rule:evenodd;stroke:#000000;stroke-width:0.28222221px;stroke-linecap:butt;stroke-linejoin:miter;stroke-opacity:1"
       d="m 44.003001,463.31174 c 1.38625,-2.96322 1.42329,-6.12945 1.22256,-9.33145 l -2.46079,-1.20746 2.70531,-1.41298 c -4.02855,0.5248 -4.24595,-4.3882 -5.53469,-7.18472 -0.30715,3.10395 2.13079,7.53349 -2.03303,8.77507 l 3.04983,0.20791 -1.87152,2.16475 c 1.11766,2.87986 2.60315,5.84977 4.92233,7.98888 z"
       id="path4148-9-3"
       inkscape:connector-curvature="0"
       sodipodi:nodetypes="ccccccccc" />
    <ellipse
       style="opacity:1;fill:#000000;fill-opacity:0;stroke:#000000;stroke-width:0.16399999;stroke-miterlimit:4;stroke-dasharray:none;stroke-opacity:1"
       id="path4182"
       cx="39.853634"
       cy="441.66904"
       rx="1.015624"
       ry="0.9621703" />
    <path
       style="fill:none;fill-rule:evenodd;stroke:#000000;stroke-width:0.28222221px;stroke-linecap:butt;stroke-linejoin:miter;stroke-opacity:1"
       d="m 37.850221,428.1887 2.06627,7.35794 2.2648,-7.3961 3.08897,-1.34343 -3.17068,-0.87562 -2.18309,-8.17494 -2.16527,8.14467 -2.92913,1.20215 z"
       id="path4212"
       inkscape:connector-curvature="0"
       sodipodi:nodetypes="ccccccccc" />
    <path
       style="opacity:1;fill:#d70000;fill-opacity:0.64186048;stroke:#ff6600;stroke-width:0.14675051;stroke-miterlimit:4;stroke-dasharray:none;stroke-opacity:1"
       d=""
       id="path4177"
       inkscape:connector-curvature="0"
       transform="scale(0.2822222,0.28222222)" />
    <path
       style="opacity:1;fill:#ff6600;fill-opacity:0.64186048;stroke:#ff6600;stroke-width:0.14675051;stroke-miterlimit:4;stroke-dasharray:none;stroke-opacity:1"
       d=""
       id="path4199"
       inkscape:connector-curvature="0"
       transform="scale(0.2822222,0.28222222)" />
    <path
       style="opacity:0.6;fill:#f44336;fill-opacity:0;stroke:none;stroke-width:1.0629921;stroke-miterlimit:4;stroke-dasharray:none;stroke-opacity:1"
       d="m 23.516711,438.46139 c -2.75123,-0.57781 -4.44127,-1.88062 -6.5267,-5.03126 -1.33802,-2.02146 -3.86553,-6.42778 -4.07377,-7.10196 -0.54589,-1.76737 -0.87251,-4.13394 -0.76486,-5.54183 0.14136,-1.84877 0.651,-3.13785 1.61822,-4.09305 l 0.54919,-0.54238 0,0.67196 c 0,0.9115 0.15789,1.61463 0.53788,2.39536 0.29815,0.61259 0.31427,0.701 0.24802,1.36072 -0.14169,1.41112 0.14486,3.79813 0.678,5.64778 0.26568,0.92173 1.24017,2.70729 3.46375,6.34666 1.84225,3.01525 3.43303,4.72033 5.18201,5.55436 0.22768,0.10858 0.37288,0.24905 0.37288,0.36074 0,0.22464 -0.0955,0.22263 -1.28462,-0.0271 z"
       id="path5791"
       inkscape:connector-curvature="0" />
    <path
       style="opacity:1;fill:#f44336;fill-opacity:1;stroke:none;stroke-width:1.0629921;stroke-miterlimit:4;stroke-dasharray:none;stroke-opacity:1"
       d="m 13.693801,461.36581 c -0.64744,-0.70013 -1.11456,-1.59228 -1.33293,-2.5458 -0.42377,-1.85045 -0.23968,-4.33804 0.50444,-6.81622 0.42274,-1.40788 4.10956,-7.55223 5.54889,-9.24761 1.61457,-1.90181 3.4437,-2.8899 5.98396,-3.23253 1.42826,-0.19265 1.69842,-0.18048 1.05833,0.0477 -2.1918,0.78123 -3.81479,2.25686 -5.71721,5.1981 -1.16237,1.79708 -3.5382,5.93043 -3.76625,6.55233 -0.61196,1.66879 -1.02988,4.64344 -0.86384,6.14842 0.0819,0.74255 0.071,0.83715 -0.13996,1.20878 -0.38813,0.68382 -0.57428,1.37136 -0.63886,2.35966 l -0.062,0.94855 -0.57459,-0.62135 z"
       id="path5811"
       inkscape:connector-curvature="0" />
    <path
       style="opacity:1;fill:#f44336;fill-opacity:1;stroke:none;stroke-width:1.0629921;stroke-miterlimit:4;stroke-dasharray:none;stroke-opacity:1"
       d="m 59.827121,455.24716 c -1.4812,-0.47786 -1.75265,-0.58798 -3.02381,-1.22664 -2.75301,-1.38318 -5.07224,-3.64178 -6.43727,-6.269 -1.0405,-2.00261 -1.47503,-3.69759 -1.47503,-5.75369 0,-1.52072 -0.13376,-1.92657 -0.77965,-2.36545 l -0.37587,-0.25542 0.53673,0 c 0.2952,0 0.98948,0.0923 1.54285,0.20504 2.80361,0.57133 4.52817,1.9078 6.67568,5.17336 0.66279,1.00786 3.30796,5.46961 3.72625,6.28526 0.36059,0.70313 1.04745,3.88919 0.95481,4.42897 -0.0328,0.19092 -0.0957,0.1805 -1.34469,-0.22243 z"
       id="path5841"
       inkscape:connector-curvature="0" />
    <path
       style="opacity:1;fill:#f44336;fill-opacity:1;stroke:none;stroke-width:1.0629921;stroke-miterlimit:4;stroke-dasharray:none;stroke-opacity:1"
       d="m 59.071171,461.19132 c 0,-1.3934 -0.54002,-2.70159 -1.54945,-3.75352 -0.94445,-0.98421 -1.91724,-1.52804 -3.82892,-2.14051 -5.26257,-1.68605 -8.52411,-4.44187 -10.37222,-8.76398 -0.65642,-1.53514 -0.91019,-2.75667 -0.93209,-4.48659 -0.022,-1.73722 -0.099,-1.98093 -0.78343,-2.47866 l -0.42476,-0.3089 1.15913,0.0337 c 1.05458,0.0307 1.21973,0.0624 1.83112,0.35208 0.97774,0.46322 1.03844,0.59269 1.05599,2.25255 0.0155,1.4639 0.18423,2.52521 0.60805,3.82417 1.26444,3.87535 4.43009,7.2601 8.40088,8.98233 0.50794,0.2203 1.56564,0.61016 2.35044,0.86636 2.21913,0.72442 3.28061,1.33748 4.14751,2.39542 0.37901,0.46255 0.37923,0.46334 0.25257,0.94083 -0.24323,0.91691 -0.77016,1.86649 -1.35395,2.43994 l -0.56087,0.55092 0,-0.70614 z"
       id="path5843"
       inkscape:connector-curvature="0" />
    <path
       style="opacity:1;fill:#f44336;fill-opacity:1;stroke:none;stroke-width:1.0629921;stroke-miterlimit:4;stroke-dasharray:none;stroke-opacity:1"
       d="m 41.129901,452.43432 c -0.24946,-0.13091 -0.58054,-0.37174 -0.73573,-0.53518 -0.27513,-0.28977 -0.27849,-0.30696 -0.13458,-0.68964 0.0812,-0.21585 0.17591,-0.52086 0.21053,-0.6778 0.0606,-0.27463 0.0744,-0.26248 0.36722,0.32354 0.34087,0.68215 0.71906,1.04595 1.43141,1.37698 l 0.48369,0.22476 -0.32234,0.11237 c -0.47292,0.16486 -0.79183,0.13174 -1.3002,-0.13503 z"
       id="path5845"
       inkscape:connector-curvature="0" />
    <path
       style="opacity:1;fill:#f44336;fill-opacity:1;stroke:none;stroke-width:1.0629921;stroke-miterlimit:4;stroke-dasharray:none;stroke-opacity:1"
       d="m 37.501331,452.6683 c -0.65438,-0.17816 -0.65841,-0.19102 -0.13578,-0.43315 0.67165,-0.31119 1.20198,-0.85651 1.55132,-1.59519 l 0.28454,-0.60166 0.0707,0.38937 c 0.0389,0.21415 0.13868,0.56236 0.22182,0.77379 0.15042,0.38258 0.14951,0.38611 -0.18817,0.73451 -0.27161,0.28023 -1.28356,0.87696 -1.42018,0.83746 -0.0173,-0.005 -0.19019,-0.0523 -0.38422,-0.10513 z"
       id="path5847"
       inkscape:connector-curvature="0" />
    <path
       style="opacity:1;fill:#f44336;fill-opacity:1;stroke:none;stroke-width:1.0629921;stroke-miterlimit:4;stroke-dasharray:none;stroke-opacity:1"
       d="m 39.519741,453.69287 -0.32186,-0.40638 0.6705,0 0.67049,0 -0.20375,0.28613 c -0.39584,0.55591 -0.46253,0.56575 -0.81538,0.12025 z"
       id="path5849"
       inkscape:connector-curvature="0" />
    <path
       style="opacity:1;fill:#f44336;fill-opacity:1;stroke:none;stroke-width:1.0629921;stroke-miterlimit:4;stroke-dasharray:none;stroke-opacity:1"
       d="m 39.586091,456.07668 -0.27345,-0.68308 0.2741,-0.35937 0.2741,-0.35936 0.28175,0.31534 c 0.15497,0.17343 0.27952,0.37131 0.27679,0.43973 -0.003,0.0684 -0.12981,0.39562 -0.2824,0.72711 l -0.27743,0.6027 -0.27346,-0.68307 z"
       id="path5851"
       inkscape:connector-curvature="0" />
    <path
       style="opacity:1;fill:#f44336;fill-opacity:1;stroke:none;stroke-width:1.0629921;stroke-miterlimit:4;stroke-dasharray:none;stroke-opacity:1"
       d="m 35.744401,462.80394 c -0.7879,-1.94632 -0.97549,-3.0502 -1.03499,-6.09047 l -0.0503,-2.57024 1.20467,-0.59406 1.20467,-0.59406 0.72138,0.17678 0.72137,0.17678 -0.9585,0.75099 c -0.70749,0.55432 -0.9585,0.81076 -0.9585,0.97922 0,0.6932 0.8136,4.34055 1.14533,5.1345 0.13986,0.33474 0.1344,0.35099 -0.33159,0.98558 -0.26058,0.35487 -0.7238,0.91383 -1.02938,1.24212 -0.49053,0.527 -0.5648,0.57418 -0.63415,0.40286 z"
       id="path5853"
       inkscape:connector-curvature="0" />
    <path
       style="opacity:1;fill:#f44336;fill-opacity:1;stroke:none;stroke-width:1.0629921;stroke-miterlimit:4;stroke-dasharray:none;stroke-opacity:1"
       d="m 43.396641,462.43921 c -0.26599,-0.29418 -0.72478,-0.85955 -1.01954,-1.25639 l -0.53592,-0.72151 0.25275,-0.73999 c 0.30189,-0.88389 0.67172,-2.33329 0.89608,-3.51182 0.0897,-0.47121 0.1847,-0.9576 0.21108,-1.08086 0.04,-0.18672 -0.12044,-0.35349 -0.96134,-0.9994 -0.55513,-0.42641 -0.99307,-0.79154 -0.97321,-0.81141 0.0199,-0.0199 0.32657,-0.11665 0.68155,-0.21509 l 0.64544,-0.17897 1.21844,0.58173 1.21844,0.58174 0.0659,1.28792 c 0.0814,1.58999 -0.0677,3.74669 -0.34857,5.04314 -0.20723,0.95647 -0.64124,2.31281 -0.7918,2.47448 -0.0416,0.0447 -0.29333,-0.1594 -0.55932,-0.45357 z"
       id="path5855"
       inkscape:connector-curvature="0" />
    <path
       style="opacity:1;fill:#ffc107;fill-opacity:1;stroke:none;stroke-width:1.0629921;stroke-miterlimit:4;stroke-dasharray:none;stroke-opacity:1"
       d="m 17.443391,421.42571 c -0.91402,-0.57375 -1.81428,-1.47216 -1.81428,-1.81057 0,-0.6624 0.6354,-2.01062 1.28803,-2.73301 0.62772,-0.6948 0.67882,-0.67993 0.69792,0.20317 0.0173,0.79991 0.28646,1.84959 0.60797,2.37109 0.15768,0.25575 0.16722,0.40758 0.0839,1.33552 -0.0517,0.57582 -0.11972,1.04653 -0.15119,1.046 -0.0315,-5.7e-4 -0.35204,-0.18602 -0.71238,-0.4122 z"
       id="path5857"
       inkscape:connector-curvature="0" />
    <path
       style="opacity:1;fill:#ffc107;fill-opacity:1;stroke:none;stroke-width:1.0629921;stroke-miterlimit:4;stroke-dasharray:none;stroke-opacity:1"
       d="m 32.844671,438.59869 c -0.37142,-0.13749 -0.84767,-0.39897 -1.05834,-0.58107 l -0.38301,-0.33108 -0.0669,-1.75023 c -0.0922,-2.41143 -0.40093,-3.59127 -1.49936,-5.72969 -1.85381,-3.609 -5.01863,-6.14022 -9.52104,-7.61493 l -1.6127,-0.52822 -0.0292,-0.93379 -0.0292,-0.93379 0.53667,0.54531 c 0.60596,0.61572 1.43967,1.19871 2.15985,1.51031 0.26755,0.11576 1.21529,0.44987 2.10609,0.74247 2.86068,0.93962 4.98819,2.18842 6.79218,3.98685 1.14672,1.14319 1.94951,2.24352 2.66275,3.6497 0.98234,1.9367 1.37344,3.5058 1.37344,5.51022 0,0.71941 0.0484,1.4357 0.10751,1.59175 0.13177,0.34777 0.44867,0.70266 0.85003,0.95194 l 0.30238,0.1878 -1.00793,-0.0118 c -0.80404,-0.009 -1.14455,-0.0623 -1.68325,-0.26176 z"
       id="path5859"
       inkscape:connector-curvature="0" />
    <path
       style="opacity:1;fill:#ffc107;fill-opacity:1;stroke:none;stroke-width:1.0629921;stroke-miterlimit:4;stroke-dasharray:none;stroke-opacity:1"
       d="m 44.720391,438.62202 c 0.72705,-0.43582 0.78149,-0.59328 0.85417,-2.47046 0.0682,-1.76224 0.24346,-2.69957 0.76316,-4.08214 0.74025,-1.96929 1.70223,-3.43778 3.30605,-5.04679 1.97221,-1.97857 3.81656,-3.05668 7.05004,-4.12107 0.90642,-0.29838 1.84616,-0.64239 2.0883,-0.76448 0.65676,-0.33114 1.61283,-1.03385 2.02045,-1.48503 l 0.36039,-0.39892 0.062,0.51569 c 0.0341,0.28362 0.0624,0.68193 0.0628,0.88513 l 8.5e-4,0.36944 -1.5875,0.51423 c -0.87312,0.28283 -2.06375,0.74312 -2.64583,1.02286 -4.27479,2.05439 -7.1997,5.58145 -8.2683,9.97045 -0.1804,0.74095 -0.23819,1.29193 -0.25551,2.43589 -0.0254,1.67962 -0.10804,1.92895 -0.76064,2.29573 -0.78163,0.4393 -1.48355,0.61049 -2.49899,0.60949 l -0.96696,-8.5e-4 0.41549,-0.24906 0,-5e-5 z"
       id="path5861"
       inkscape:connector-curvature="0" />
    <path
       style="opacity:1;fill:#ffc107;fill-opacity:1;stroke:none;stroke-width:1.0629921;stroke-miterlimit:4;stroke-dasharray:none;stroke-opacity:1"
       d="m 61.564361,420.82325 c -0.0508,-0.92126 -0.0338,-1.06405 0.18218,-1.5371 0.34856,-0.76328 0.55003,-1.63409 0.55003,-2.37741 l 0,-0.65443 0.41608,0.39843 c 0.62328,0.59682 1.13244,1.44029 1.38693,2.29755 l 0.22746,0.76621 -0.26649,0.34939 c -0.14657,0.19217 -0.46861,0.51501 -0.71564,0.71744 -0.44616,0.36559 -1.52972,1.05554 -1.65772,1.05554 -0.0368,0 -0.0921,-0.45703 -0.12283,-1.01562 z"
       id="path5863"
       inkscape:connector-curvature="0" />
    <path
       style="opacity:1;fill:#ffc107;fill-opacity:1;stroke:none;stroke-width:1.0629921;stroke-miterlimit:4;stroke-dasharray:none;stroke-opacity:1"
       d="m 60.458451,457.16754 c -0.88588,-0.82428 -1.85655,-1.31834 -3.94394,-2.00742 -0.93421,-0.3084 -2.19004,-0.80655 -2.79075,-1.10701 -4.0213,-2.01137 -6.74601,-5.28962 -7.82329,-9.41263 -0.20142,-0.77091 -0.26986,-1.33814 -0.32102,-2.66071 -0.0731,-1.88914 -0.12853,-2.04496 -0.88085,-2.47516 l -0.3937,-0.22513 0.96696,-0.002 c 1.00364,-0.002 1.60535,0.14137 2.488,0.59166 0.65462,0.33397 0.77966,0.66213 0.74782,1.96266 -0.079,3.22886 1.38376,6.74045 3.90122,9.36517 2.01336,2.09914 4.01579,3.30853 7.21664,4.35857 l 1.61269,0.52904 0.0289,0.33947 c 0.0159,0.18671 -0.007,0.57245 -0.0504,0.85719 l -0.0793,0.51772 -0.67899,-0.63177 z"
       id="path5865"
       inkscape:connector-curvature="0" />
    <path
       style="opacity:1;fill:#ffc107;fill-opacity:1;stroke:none;stroke-width:1.0629921;stroke-miterlimit:4;stroke-dasharray:none;stroke-opacity:1"
       d="m 18.674191,456.9508 0.0291,-0.87141 1.57948,-0.52212 c 2.56814,-0.84895 4.49091,-1.89874 6.24912,-3.41189 2.12619,-1.82985 3.7244,-4.40461 4.48456,-7.22477 0.20924,-0.77628 0.27028,-1.28813 0.32247,-2.70399 l 0.0644,-1.74645 0.36212,-0.33184 c 0.60108,-0.55082 1.38134,-0.79599 2.66169,-0.83634 l 1.10873,-0.0349 -0.40317,0.24812 c -0.71479,0.4399 -0.7968,0.6884 -0.86923,2.63362 -0.0716,1.92414 -0.24275,2.75048 -0.90565,4.37344 -0.98718,2.4169 -2.73063,4.60024 -4.94287,6.18996 -1.30345,0.93667 -3.23867,1.86962 -5.2263,2.51955 -0.9147,0.2991 -1.89055,0.65949 -2.16855,0.80086 -0.65836,0.33482 -1.71994,1.13557 -1.99037,1.50134 -0.11722,0.15855 -0.25171,0.28826 -0.29888,0.28826 -0.0472,0 -0.0727,-0.39213 -0.0566,-0.8714 z"
       id="path5867"
       inkscape:connector-curvature="0" />
    <path
       style="opacity:1;fill:#ffc107;fill-opacity:1;stroke:none;stroke-width:1.0629921;stroke-miterlimit:4;stroke-dasharray:none;stroke-opacity:1"
       d="m 17.004531,461.31908 c -0.59362,-0.60802 -1.1269,-1.6097 -1.30238,-2.44628 l -0.11938,-0.56914 0.70775,-0.67491 c 0.59742,-0.56968 1.67412,-1.31846 1.8959,-1.31846 0.0348,0 0.0673,0.21545 0.0722,0.47877 0.005,0.26333 0.0412,0.70556 0.0809,0.98274 0.059,0.4128 0.0316,0.58681 -0.15113,0.96185 -0.3599,0.73847 -0.56485,1.58327 -0.57695,2.37817 -0.006,0.40817 -0.0278,0.74213 -0.048,0.74213 -0.0202,0 -0.27165,-0.24069 -0.55886,-0.53487 z"
       id="path5869"
       inkscape:connector-curvature="0" />
    <path
       style="opacity:1;fill:#ffc107;fill-opacity:1;stroke:none;stroke-width:1.0629921;stroke-miterlimit:4;stroke-dasharray:none;stroke-opacity:1"
       d="m 62.295081,461.24444 c -0.002,-0.79847 -0.21896,-1.75534 -0.54374,-2.39628 -0.22563,-0.44525 -0.23997,-0.56061 -0.18765,-1.50997 0.0311,-0.56535 0.0742,-1.0279 0.0957,-1.0279 0.0215,0 0.26069,0.1123 0.53154,0.24955 0.59242,0.3002 1.61143,1.13155 1.92256,1.56849 l 0.22511,0.31613 -0.26364,0.80018 c -0.30107,0.91384 -0.76211,1.67553 -1.36298,2.25179 l -0.41544,0.39843 -10e-4,-0.65042 z"
       id="path5871"
       inkscape:connector-curvature="0" />
    <path
       style="opacity:1;fill:#ffc107;fill-opacity:1;stroke:none;stroke-width:1.0629921;stroke-miterlimit:4;stroke-dasharray:none;stroke-opacity:1"
       d="m 38.085091,459.97934 c -0.29559,-0.51876 -1.23801,-4.89127 -1.07988,-5.01028 0.0234,-0.0176 0.44449,-0.3467 0.93576,-0.73131 0.49126,-0.3846 0.90069,-0.69928 0.90984,-0.69928 0.009,0 0.18988,0.19178 0.40164,0.42617 l 0.38503,0.42617 -0.36252,0.42352 c -0.19939,0.23294 -0.36252,0.46173 -0.36252,0.50843 0,0.0467 0.16839,0.49663 0.37419,0.99983 l 0.3742,0.91492 -0.6208,1.22468 c -0.68104,1.34355 -0.87672,1.65443 -0.95494,1.51715 z"
       id="path5873"
       inkscape:connector-curvature="0" />
    <path
       style="opacity:1;fill:#ffc107;fill-opacity:1;stroke:none;stroke-width:1.0629921;stroke-miterlimit:4;stroke-dasharray:none;stroke-opacity:1"
       d="m 41.161921,459.3205 c -0.23121,-0.40829 -0.56671,-1.04281 -0.74556,-1.41003 l -0.32516,-0.66769 0.36816,-0.87949 c 0.20249,-0.48372 0.36816,-0.95719 0.36816,-1.05215 0,-0.095 -0.13607,-0.30302 -0.30238,-0.46235 -0.38682,-0.3706 -0.3806,-0.53981 0.0347,-0.94229 l 0.33703,-0.32666 0.94808,0.72639 c 0.52145,0.39952 0.96039,0.73513 0.97542,0.7458 0.0711,0.0505 -0.63308,3.13258 -0.91721,4.01474 l -0.32082,0.99609 -0.42038,-0.74236 z"
       id="path5875"
       inkscape:connector-curvature="0" />
    <path
       style="opacity:1;fill:#ffc107;fill-opacity:1;stroke:none;stroke-width:1.0629921;stroke-miterlimit:4;stroke-dasharray:none;stroke-opacity:1"
       d="m 39.667761,463.20025 c -0.3402,-0.51796 -0.83818,-1.43233 -1.11033,-2.03875 l -0.26689,-0.59472 0.2801,-0.43995 c 0.15405,-0.24197 0.51361,-0.88408 0.79901,-1.4269 l 0.51891,-0.98694 0.31443,0.63417 c 0.17293,0.34879 0.51504,0.97435 0.76024,1.39012 l 0.44582,0.75595 -0.19707,0.50397 c -0.20344,0.52024 -0.97044,1.97344 -1.21597,2.30385 -0.13233,0.17805 -0.14832,0.17314 -0.32825,-0.1008 z"
       id="path5877"
       inkscape:connector-curvature="0" />
    <path
       style="opacity:1;fill:#ffc107;fill-opacity:1;stroke:none;stroke-width:1.0629921;stroke-miterlimit:4;stroke-dasharray:none;stroke-opacity:1"
       d="m 39.896821,434.69809 c -0.0299,-0.0502 -0.42847,-1.4293 -0.88562,-3.06468 -0.45714,-1.63538 -0.87125,-3.11558 -0.92025,-3.28935 -0.0837,-0.29673 -0.16554,-0.34261 -1.34747,-0.75492 -0.69212,-0.24145 -1.2584,-0.46511 -1.2584,-0.49703 0,-0.0319 0.54429,-0.27887 1.20952,-0.54878 0.66524,-0.26991 1.21041,-0.49372 1.21149,-0.49735 10e-4,-0.004 0.44976,-1.68483 0.99708,-3.73598 0.54732,-2.05115 1.02284,-3.66133 1.05672,-3.57818 0.0339,0.0832 0.49031,1.75558 1.0143,3.71649 0.524,1.96091 0.97267,3.58523 0.99704,3.60961 0.0244,0.0244 0.62738,0.20494 1.34,0.40124 0.71262,0.1963 1.30862,0.36897 1.32445,0.38371 0.0158,0.0147 -0.52846,0.26441 -1.20953,0.55482 -0.68106,0.29042 -1.28156,0.56869 -1.33444,0.61838 -0.0529,0.0497 -0.55611,1.59401 -1.11829,3.43182 -0.56218,1.83781 -1.04665,3.3004 -1.0766,3.2502 z"
       id="path5879"
       inkscape:connector-curvature="0" />
    <path
       style="opacity:1;fill:#ffc107;fill-opacity:1;stroke:none;stroke-width:1.0629921;stroke-miterlimit:4;stroke-dasharray:none;stroke-opacity:1"
       d="m 39.466431,442.40274 c -0.30506,-0.16686 -0.45357,-0.39638 -0.45357,-0.70099 0,-0.41512 0.0956,-0.58587 0.42275,-0.75505 0.38312,-0.19812 0.82286,-0.10393 1.08793,0.23304 0.29989,0.38126 0.2614,0.7682 -0.1073,1.07844 -0.33077,0.27832 -0.62373,0.32291 -0.94981,0.14456 z"
       id="path5881"
       inkscape:connector-curvature="0" />
    <path
       style="opacity:1;fill:#ffc107;fill-opacity:1;stroke:none;stroke-width:1.0629921;stroke-miterlimit:4;stroke-dasharray:none;stroke-opacity:1"
       d="m 42.691831,452.01664 c -0.76905,-0.25368 -1.4887,-1.02035 -1.74907,-1.86335 -0.22119,-0.71612 -0.37474,-1.74675 -0.46163,-3.09845 l -0.0551,-0.85675 0.39417,1.132 c 0.98731,2.83543 1.82284,3.84558 3.4843,4.21246 l 0.30238,0.0668 -0.55437,0.28824 c -0.64449,0.33511 -0.69295,0.33935 -1.36071,0.11908 z"
       id="path5883"
       inkscape:connector-curvature="0" />
    <path
       style="opacity:1;fill:#ffc107;fill-opacity:1;stroke:none;stroke-width:1.0629921;stroke-miterlimit:4;stroke-dasharray:none;stroke-opacity:1"
       d="m 35.737061,451.92376 c -0.55496,-0.28869 -0.58468,-0.24294 0.3797,-0.58429 1.16789,-0.41339 2.00383,-1.61759 2.8344,-4.08304 0.25213,-0.7484 0.45986,-1.24597 0.46164,-1.10572 0.006,0.47979 -0.29608,2.66733 -0.44969,3.25555 -0.35698,1.36699 -1.08419,2.30459 -2.04007,2.63029 -0.58825,0.20044 -0.58286,0.20096 -1.18598,-0.11279 z"
       id="path5885"
       inkscape:connector-curvature="0" />
    <path
       style="opacity:1;fill:#ffc107;fill-opacity:1;stroke:none;stroke-width:1.0629921;stroke-miterlimit:4;stroke-dasharray:none;stroke-opacity:1"
       d="m 39.072291,452.8112 c -0.1702,-0.0667 -0.14972,-0.10197 0.17646,-0.30356 0.20296,-0.12544 0.42612,-0.30959 0.49591,-0.40922 0.11759,-0.16789 0.16169,-0.14964 0.60218,0.24915 0.4444,0.40235 0.46072,0.43422 0.25101,0.49043 -0.30812,0.0826 -1.29058,0.0653 -1.52556,-0.0268 z"
       id="path5887"
       inkscape:connector-curvature="0" />
  </g>
  <g
     inkscape:groupmode="layer"
     id="layer3"
     inkscape:label="Layer 3"
     transform="translate(0,-399.39998)">
    <flowRoot
       xml:space="preserve"
       id="flowRoot4309"
       style="font-style:normal;font-weight:normal;font-size:40px;line-height:125%;font-family:sans-serif;letter-spacing:0px;word-spacing:0px;fill:#000000;fill-opacity:1;stroke:none;stroke-width:1px;stroke-linecap:butt;stroke-linejoin:miter;stroke-opacity:1"
       transform="scale(0.2822222,0.28222222)"><flowRegion
         id="flowRegion4311"><rect
           id="rect4313"
           width="159.85664"
           height="43.941635"
           x="235.11301"
           y="462.95291" /></flowRegion><flowPara
         id="flowPara4315">Lelldkjsdasd</flowPara><flowPara
         id="flowPara4317" /></flowRoot>    <ellipse
       style="opacity:0.6;fill:#2b0000;fill-opacity:0;stroke:#000000;stroke-width:0.29999998;stroke-miterlimit:4;stroke-dasharray:none;stroke-opacity:1"
       id="path5787"
       cx="39.783642"
       cy="439.33292"
       rx="36.084122"
       ry="34.118652" />
    <path
       style="opacity:1;fill:#f44336;fill-opacity:1;stroke:none;stroke-width:1.0629921;stroke-miterlimit:4;stroke-dasharray:none;stroke-opacity:1"
       d="m 15.455491,457.64891 c -0.1304,-0.33981 0.0727,-3.03009 0.31415,-4.16084 0.40432,-1.89369 0.56352,-2.26411 2.12615,-4.94737 2.35433,-4.04271 3.41496,-5.58223 4.65036,-6.75001 1.55523,-1.47012 3.43542,-2.26182 5.63177,-2.3714 l 1.00793,-0.0503 -0.75595,0.29219 c -0.41577,0.16071 -1.0492,0.46522 -1.40761,0.67669 -1.31558,0.7762 -2.99515,2.65673 -4.40808,4.9355 -1.12723,1.81798 -3.20608,5.46145 -3.41646,5.98781 -0.27217,0.68094 -0.71242,2.63395 -0.79736,3.53719 -0.0939,0.99792 -0.12219,1.07249 -0.46091,1.21279 -0.4953,0.20516 -1.41021,0.83302 -1.93986,1.33123 -0.36995,0.348 -0.50008,0.4213 -0.54413,0.3065 z"
       id="path5813"
       inkscape:connector-curvature="0" />
    <path
       style="opacity:1;fill:#f44336;fill-opacity:1;stroke:none;stroke-width:1.0629921;stroke-miterlimit:4;stroke-dasharray:none;stroke-opacity:1"
       d="m 18.705901,455.1198 c 0.10592,-0.92094 0.43596,-2.48116 0.70281,-3.32238 0.23361,-0.73645 1.88769,-3.71272 3.4577,-6.22165 2.12604,-3.39746 3.72068,-4.90379 6.03593,-5.70166 0.73083,-0.25186 2.1098,-0.49727 2.79136,-0.49677 l 0.51596,2.8e-4 -0.30667,0.18702 c -0.43869,0.26752 -0.8499,0.79109 -0.86792,1.10508 -0.008,0.1482 -0.023,0.85909 -0.0322,1.57977 -0.0602,4.72499 -3.26366,9.45967 -8.01049,11.83945 -0.84906,0.42567 -2.24791,0.96247 -3.51443,1.34863 l -0.83802,0.25552 0.0659,-0.57339 z"
       id="path5815"
       inkscape:connector-curvature="0" />
    <path
       style="opacity:1;fill:#f44336;fill-opacity:1;stroke:none;stroke-width:1.0629921;stroke-miterlimit:4;stroke-dasharray:none;stroke-opacity:1"
       d="m 20.125871,461.24062 c -0.49788,-0.55376 -0.97024,-1.44457 -1.20855,-2.27917 l -0.14958,-0.52384 0.33364,-0.42162 c 0.83312,-1.05281 1.97324,-1.71468 4.23732,-2.45987 2.75027,-0.9052 4.57777,-1.8792 6.36558,-3.39265 2.27937,-1.92957 3.96402,-4.6645 4.68619,-7.60778 0.20217,-0.82392 0.24197,-1.35518 0.28392,-3.78931 0.007,-0.42851 0.5265,-0.93159 1.26729,-1.22815 0.56212,-0.22503 0.80683,-0.26206 1.73163,-0.26206 l 1.07701,0 -0.45537,0.28878 c -0.68171,0.43233 -0.79362,0.75396 -0.79362,2.28086 0,2.10665 -0.41919,3.75184 -1.47939,5.80614 -0.70509,1.36622 -1.57896,2.52582 -2.76758,3.67253 -1.9592,1.89011 -3.98244,3.00685 -7.3947,4.08158 -3.11256,0.98034 -4.85355,2.8924 -5.05895,5.55607 -0.0335,0.43506 -0.0954,0.79102 -0.13752,0.79102 -0.0421,0 -0.28388,-0.23064 -0.53732,-0.51253 z"
       id="path5817"
       inkscape:connector-curvature="0" />
    <path
       style="opacity:1;fill:#f44336;fill-opacity:1;stroke:none;stroke-width:1.0629921;stroke-miterlimit:4;stroke-dasharray:none;stroke-opacity:1"
       d="m 36.090221,438.65356 c -0.63698,-0.24007 -1.15442,-0.59801 -1.32485,-0.91645 -0.074,-0.13825 -0.11152,-0.65499 -0.10057,-1.38474 0.0717,-4.77822 -2.89799,-9.58493 -7.5203,-12.17227 -1.1507,-0.64411 -2.29196,-1.12378 -3.90547,-1.64147 -1.88101,-0.60352 -2.75945,-1.08149 -3.69911,-2.01273 l -0.77609,-0.76915 0.1542,-0.59049 c 0.22562,-0.86402 0.69281,-1.7215 1.27106,-2.33291 0.27992,-0.29597 0.53758,-0.53813 0.57258,-0.53813 0.035,0 0.0466,0.1789 0.0257,0.39757 -0.12404,1.3007 0.59466,3.05399 1.6949,4.13474 0.92242,0.90608 1.85664,1.40422 3.88022,2.06897 1.95209,0.64127 3.39169,1.29711 4.66376,2.12467 2.80481,1.82472 4.85519,4.4332 5.85713,7.45143 0.46481,1.40016 0.61793,2.32272 0.61793,3.72307 0,1.56289 0.12268,1.93453 0.78295,2.37188 l 0.46113,0.30544 -1.05041,-0.005 c -0.80769,-0.004 -1.17852,-0.0535 -1.60478,-0.21418 z"
       id="path5819"
       inkscape:connector-curvature="0" />
    <path
       style="opacity:1;fill:#f44336;fill-opacity:1;stroke:none;stroke-width:1.0629921;stroke-miterlimit:4;stroke-dasharray:none;stroke-opacity:1"
       d="m 30.798551,438.70096 c -1.34307,-0.18229 -2.96301,-0.77471 -3.92135,-1.43406 -1.16922,-0.80445 -2.34796,-2.13902 -3.61131,-4.08875 -1.01679,-1.56921 -3.51898,-5.89121 -3.72986,-6.44254 -0.37065,-0.96902 -0.99622,-4.11168 -0.84797,-4.25992 0.10271,-0.10272 3.02739,0.9694 4.14779,1.52048 1.67923,0.82594 2.87016,1.67101 4.13305,2.93278 1.89987,1.89816 3.14813,4.13173 3.80225,6.80357 0.15614,0.63776 0.21452,1.23031 0.2284,2.31825 0.0103,0.80383 0.0667,1.5749 0.12547,1.71349 0.11333,0.26736 0.548,0.70573 0.88306,0.89059 0.16542,0.0913 0.10212,0.10906 -0.35278,0.0992 -0.3049,-0.007 -0.69044,-0.0305 -0.85675,-0.0531 z"
       id="path5821"
       inkscape:connector-curvature="0" />
    <path
       style="opacity:1;fill:#f44336;fill-opacity:1;stroke:none;stroke-width:1.0629921;stroke-miterlimit:4;stroke-dasharray:none;stroke-opacity:1"
       d="m 27.119591,438.61588 c -2.87993,-0.52662 -4.72008,-1.91013 -6.89736,-5.18575 -0.35006,-0.52664 -1.36508,-2.20486 -2.2556,-3.72936 -1.54456,-2.64416 -1.63356,-2.82617 -1.93233,-3.95164 -0.17226,-0.6489 -0.37837,-1.66944 -0.45803,-2.26786 -0.14897,-1.11931 -0.19918,-2.96949 -0.0837,-3.08496 0.0358,-0.0358 0.35151,0.20291 0.70162,0.53042 0.35011,0.32752 0.9445,0.76611 1.32086,0.97466 0.37637,0.20855 0.71213,0.41988 0.74615,0.46961 0.034,0.0497 0.0912,0.43794 0.12704,0.86268 0.0788,0.93344 0.46029,2.64818 0.78848,3.54408 0.24673,0.67353 2.61716,4.8085 3.78466,6.60198 0.94147,1.44624 1.81333,2.53264 2.6752,3.33349 0.87288,0.81107 1.57617,1.25529 2.72524,1.72135 l 0.82404,0.33423 -0.65516,-0.007 c -0.36034,-0.004 -0.99534,-0.0696 -1.41111,-0.14558 l 0,0 z"
       id="path5823"
       inkscape:connector-curvature="0" />
    <path
       style="opacity:1;fill:#f44336;fill-opacity:1;stroke:none;stroke-width:1.0629921;stroke-miterlimit:4;stroke-dasharray:none;stroke-opacity:1"
       d="m 23.516711,438.46139 c -2.75123,-0.57781 -4.44127,-1.88062 -6.5267,-5.03126 -1.33802,-2.02146 -3.86553,-6.42778 -4.07377,-7.10196 -0.54589,-1.76737 -0.87251,-4.13394 -0.76486,-5.54183 0.14136,-1.84877 0.651,-3.13785 1.61822,-4.09305 l 0.54919,-0.54238 0,0.67196 c 0,0.9115 0.15789,1.61463 0.53788,2.39536 0.29815,0.61259 0.31427,0.701 0.24802,1.36072 -0.14169,1.41112 0.14486,3.79813 0.678,5.64778 0.26568,0.92173 1.24017,2.70729 3.46375,6.34666 2.00322,3.2787 3.53296,4.8386 5.65283,5.76422 l 0.75881,0.33133 -0.60476,-0.006 c -0.33262,-0.003 -1.0241,-0.094 -1.53661,-0.20163 z"
       id="path5825"
       inkscape:connector-curvature="0" />
    <path
       style="opacity:1;fill:#f44336;fill-opacity:1;stroke:none;stroke-width:1.0629921;stroke-miterlimit:4;stroke-dasharray:none;stroke-opacity:1"
       d="m 41.473201,438.64967 c 0.77996,-0.45614 0.99412,-1.02583 0.9012,-2.39731 -0.18641,-2.75171 1.36692,-6.45467 3.76448,-8.9741 2.01442,-2.11681 4.14261,-3.35046 7.83294,-4.5405 2.03541,-0.65638 3.37294,-1.56246 4.2066,-2.84967 0.57099,-0.88163 0.80412,-1.59345 0.87822,-2.68147 l 0.0649,-0.95328 0.50457,0.50512 c 0.58685,0.58747 1.0716,1.44461 1.3178,2.33014 l 0.17393,0.62561 -0.36753,0.44853 c -0.42316,0.5164 -1.41114,1.28561 -2.09894,1.63414 -0.26022,0.13186 -1.23347,0.49075 -2.16277,0.79753 -0.9293,0.30678 -2.15757,0.7813 -2.72948,1.0545 -3.25746,1.55606 -5.79809,4.04065 -7.22932,7.06986 -0.93141,1.97134 -1.27474,3.41909 -1.3003,5.48319 -0.021,1.69164 -0.0763,1.81106 -1.06258,2.29362 -0.62466,0.30562 -0.74754,0.32889 -1.87792,0.35568 l -1.20953,0.0287 0.3937,-0.23025 z"
       id="path5827"
       inkscape:connector-curvature="0" />
    <path
       style="opacity:1;fill:#f44336;fill-opacity:1;stroke:none;stroke-width:1.0629921;stroke-miterlimit:4;stroke-dasharray:none;stroke-opacity:1"
       d="m 48.094001,438.49333 c 0.66581,-0.43342 0.79701,-0.82572 0.79701,-2.38307 0,-1.98316 0.39617,-3.57956 1.3795,-5.55886 1.22776,-2.47131 3.46407,-4.76791 6.01906,-6.18134 1.08601,-0.60079 2.01726,-0.99367 3.53243,-1.49029 0.61262,-0.20079 1.17055,-0.38592 1.23984,-0.41139 0.17879,-0.0657 0.16121,0.35398 -0.0719,1.71774 -0.34214,2.00128 -0.62119,2.68372 -2.21376,5.41386 -1.4175,2.43002 -2.62186,4.34141 -3.30087,5.23868 -0.47724,0.63063 -1.70386,1.86791 -2.25035,2.26991 -1.18361,0.87065 -3.03045,1.50554 -4.72711,1.62505 l -0.86673,0.061 0.46291,-0.30134 z"
       id="path5829"
       inkscape:connector-curvature="0" />
    <path
       style="opacity:1;fill:#f44336;fill-opacity:1;stroke:none;stroke-width:1.0629921;stroke-miterlimit:4;stroke-dasharray:none;stroke-opacity:1"
       d="m 51.410851,438.4883 c 1.43166,-0.5529 2.69807,-1.46151 3.74863,-2.68951 1.45776,-1.70398 5.30633,-8.07193 5.69857,-9.42899 0.27354,-0.94642 0.59444,-2.56557 0.67984,-3.43032 l 0.0655,-0.66329 0.47258,-0.22878 c 0.65227,-0.31578 1.6369,-1.03059 2.01889,-1.46566 l 0.31836,-0.3626 0,1.35421 c 0,1.49916 -0.22502,3.0645 -0.65102,4.52874 -0.20681,0.71085 -0.54024,1.37034 -1.68164,3.32619 -2.48661,4.26094 -3.44428,5.65223 -4.73589,6.88024 -1.58681,1.50868 -3.44418,2.29243 -5.73224,2.41882 l -0.95754,0.0529 0.75595,-0.29195 z"
       id="path5831"
       inkscape:connector-curvature="0" />
    <path
       style="opacity:1;fill:#f44336;fill-opacity:1;stroke:none;stroke-width:1.0629921;stroke-miterlimit:4;stroke-dasharray:none;stroke-opacity:1"
       d="m 54.538361,438.53498 c 2.23735,-0.88046 4.00078,-2.55776 5.87557,-5.58858 1.54114,-2.49143 3.34815,-5.69324 3.55486,-6.2988 0.56575,-1.65728 0.90678,-4.0533 0.81769,-5.74494 -0.0569,-1.07975 -0.0549,-1.0925 0.28573,-1.81428 0.36558,-0.77476 0.60981,-1.98575 0.51647,-2.56093 l -0.0549,-0.33834 0.29241,0.20821 c 0.69161,0.49247 1.35597,1.60596 1.68308,2.82091 0.24384,0.90564 0.24179,3.6063 -0.004,4.91226 -0.43515,2.31476 -0.56764,2.60529 -3.20661,7.03179 -1.43999,2.41538 -2.3156,3.66928 -3.26185,4.67109 -1.62711,1.72265 -3.63602,2.66576 -5.94727,2.79203 -0.85171,0.0465 -0.8854,0.041 -0.55146,-0.0904 z"
       id="path5833"
       inkscape:connector-curvature="0" />
    <path
       style="opacity:1;fill:#f44336;fill-opacity:1;stroke:none;stroke-width:1.0629921;stroke-miterlimit:4;stroke-dasharray:none;stroke-opacity:1"
       d="m 65.557541,461.10686 c -0.0154,-0.84545 -0.277,-1.83418 -0.6431,-2.43041 -0.16345,-0.26619 -0.17982,-0.44527 -0.12895,-1.41111 0.0903,-1.71485 -0.24716,-4.09178 -0.82009,-5.77627 -0.13636,-0.40091 -0.91099,-1.84786 -1.82338,-3.40595 -2.6007,-4.44123 -3.78753,-6.05119 -5.30213,-7.19248 -0.91798,-0.69172 -1.36146,-0.93847 -2.30443,-1.28216 l -0.65516,-0.23879 0.80635,0.0645 c 3.88512,0.31051 6.0638,1.8121 8.69164,5.99044 0.86366,1.37325 3.15204,5.31787 3.36762,5.80498 0.29604,0.6689 0.67869,2.22398 0.85336,3.46804 0.19257,1.37146 0.14181,3.35206 -0.10976,4.28373 -0.29823,1.10438 -0.99063,2.25818 -1.644,2.73951 l -0.27315,0.20123 -0.0148,-0.81521 z"
       id="path5835"
       inkscape:connector-curvature="0" />
    <path
       style="opacity:1;fill:#f44336;fill-opacity:1;stroke:none;stroke-width:1.0629921;stroke-miterlimit:4;stroke-dasharray:none;stroke-opacity:1"
       d="m 63.726041,457.21136 c -0.35025,-0.32227 -0.97144,-0.75821 -1.38043,-0.96875 l -0.74362,-0.3828 -0.0659,-0.6567 c -0.099,-0.98557 -0.40857,-2.53014 -0.69332,-3.45907 -0.41216,-1.34453 -3.91751,-7.24165 -5.38479,-9.05891 -1.13275,-1.40295 -2.38928,-2.36673 -3.86701,-2.96604 l -0.83522,-0.33874 0.65515,-2.8e-4 c 1.45368,-8.5e-4 3.46852,0.61433 4.7011,1.43529 0.67811,0.45165 1.82761,1.54348 2.46514,2.34145 0.60804,0.76106 1.97897,2.92576 3.44703,5.44286 1.61708,2.7726 1.81396,3.26585 2.19592,5.50167 0.14365,0.84085 0.19154,1.52132 0.17113,2.43181 l -0.0283,1.26426 -0.6368,-0.58596 z"
       id="path5837"
       inkscape:connector-curvature="0" />
    <path
       style="opacity:1;fill:#ef9a9a;fill-opacity:0;stroke:none;stroke-width:1.0629921;stroke-miterlimit:4;stroke-dasharray:none;stroke-opacity:1"
       d="m 39.288671,438.64687 c -1.3551,-0.55725 -1.41537,-0.66642 -1.44332,-2.61418 -0.0179,-1.25161 -0.0681,-1.70978 -0.27834,-2.54305 -1.34556,-5.33337 -5.2183,-9.12764 -11.20375,-10.97676 -1.6419,-0.50723 -2.65398,-1.04921 -3.55191,-1.90207 -1.22265,-1.16128 -1.71683,-2.42799 -1.60796,-4.12164 0.0312,-0.48507 0.0338,-0.88195 0.006,-0.88195 -0.1288,0 -0.9347,0.62984 -1.31034,1.02408 -0.54929,0.5765 -0.86627,1.10305 -1.16653,1.93783 l -0.24667,0.6858 -0.16566,-0.43795 c -0.30214,-0.79876 -0.40181,-1.50842 -0.33463,-2.38247 l 0.0647,-0.84146 -0.40939,0.23009 c -0.90849,0.5106 -1.76224,1.6539 -2.17314,2.91015 l -0.17896,0.54714 -0.22707,-0.49425 c -0.33912,-0.73812 -0.48761,-1.78108 -0.36629,-2.57274 0.0553,-0.36114 0.0865,-0.67292 0.0693,-0.69285 -0.0172,-0.0199 -0.24348,0.10694 -0.50275,0.28192 -0.25927,0.17498 -0.48988,0.29967 -0.51247,0.27708 -0.0653,-0.0653 1.64693,-1.65838 2.69079,-2.50366 9.52459,-7.71267 22.46751,-10.14428 34.51687,-6.48473 4.33159,1.31556 8.99515,3.82535 12.40544,6.67626 1.18251,0.98854 2.13582,1.88003 1.93381,1.8084 -0.16048,-0.0569 -0.16984,0.0111 -0.11257,0.81778 0.0684,0.96355 -0.0439,1.68468 -0.37848,2.42981 l -0.20776,0.46274 -0.1761,-0.55437 c -0.3782,-1.19056 -1.07254,-2.16914 -1.95438,-2.75447 -0.30669,-0.20357 -0.57376,-0.37013 -0.59348,-0.37013 -0.0197,0 -0.0182,0.47777 0.003,1.0617 0.0331,0.89507 0.004,1.17191 -0.18648,1.76389 -0.12418,0.3862 -0.25717,0.70219 -0.29553,0.70219 -0.0384,0 -0.14519,-0.23935 -0.23741,-0.53188 -0.19086,-0.60548 -0.76263,-1.60164 -1.15671,-2.01526 -0.30657,-0.32177 -1.31354,-1.03463 -1.37333,-0.97221 -0.0221,0.0231 0.001,0.29143 0.0514,0.59634 0.18393,1.11253 -0.14522,2.49699 -0.84157,3.53979 -0.77234,1.15659 -2.33457,2.1845 -4.1085,2.70331 -5.55853,1.62565 -9.38412,5.01062 -11.02458,9.7548 -0.49304,1.42588 -0.66749,2.4512 -0.66749,3.92321 0,1.44876 -0.10836,1.81476 -0.6334,2.13925 -0.26109,0.16136 -1.43932,0.63738 -1.52424,0.61581 -0.005,-0.001 -0.27084,-0.10989 -0.59035,-0.24129 z m 1.85035,-6.45909 c 0.6245,-2.05116 1.1714,-3.77786 1.21534,-3.83713 0.0439,-0.0593 0.80687,-0.42127 1.69539,-0.80445 0.88852,-0.38318 1.61549,-0.72528 1.61549,-0.76022 0,-0.0349 -0.6917,-0.25403 -1.5371,-0.48686 -0.84541,-0.23283 -1.6117,-0.44476 -1.70286,-0.47095 -0.10707,-0.0308 -0.23536,-0.3051 -0.3624,-0.77496 -0.10816,-0.40004 -0.62321,-2.32598 -1.14457,-4.27987 -0.52135,-1.95389 -0.97181,-3.55273 -1.00103,-3.55297 -0.0424,-2.9e-4 -0.79023,2.75238 -2.23473,8.22616 -0.0775,0.29357 -0.18428,0.35565 -1.61898,0.94102 -0.84482,0.3447 -1.56771,0.65683 -1.60643,0.69363 -0.0387,0.0368 0.67476,0.33216 1.58549,0.65636 1.58597,0.56455 1.6596,0.60286 1.74373,0.90714 1.28335,4.64179 2.09086,7.40522 2.14673,7.34651 0.0388,-0.0407 0.58143,-1.75226 1.20593,-3.80341 z"
       id="path5893"
       inkscape:connector-curvature="0" />
    <path
       style="opacity:1;fill:#ef5350;fill-opacity:0;stroke:none;stroke-width:1.0629921;stroke-miterlimit:4;stroke-dasharray:none;stroke-opacity:1"
       d="m 39.288671,438.64687 c -1.3551,-0.55725 -1.41537,-0.66642 -1.44332,-2.61418 -0.0179,-1.25161 -0.0681,-1.70978 -0.27834,-2.54305 -1.34556,-5.33337 -5.2183,-9.12764 -11.20375,-10.97676 -1.6419,-0.50723 -2.65398,-1.04921 -3.55191,-1.90207 -1.22265,-1.16128 -1.71683,-2.42799 -1.60796,-4.12164 0.0312,-0.48507 0.0338,-0.88195 0.006,-0.88195 -0.1288,0 -0.9347,0.62984 -1.31034,1.02408 -0.54929,0.5765 -0.86627,1.10305 -1.16653,1.93783 l -0.24667,0.6858 -0.16566,-0.43795 c -0.30214,-0.79876 -0.40181,-1.50842 -0.33463,-2.38247 l 0.0647,-0.84146 -0.40939,0.23009 c -0.90849,0.5106 -1.76224,1.6539 -2.17314,2.91015 l -0.17896,0.54714 -0.22707,-0.49425 c -0.33912,-0.73812 -0.48761,-1.78108 -0.36629,-2.57274 0.0553,-0.36114 0.0865,-0.67292 0.0693,-0.69285 -0.0172,-0.0199 -0.24348,0.10694 -0.50275,0.28192 -0.25927,0.17498 -0.48988,0.29967 -0.51247,0.27708 -0.0653,-0.0653 1.64693,-1.65838 2.69079,-2.50366 9.52459,-7.71267 22.46751,-10.14428 34.51687,-6.48473 4.33159,1.31556 8.99515,3.82535 12.40544,6.67626 1.18251,0.98854 2.13582,1.88003 1.93381,1.8084 -0.16048,-0.0569 -0.16984,0.0111 -0.11257,0.81778 0.0684,0.96355 -0.0439,1.68468 -0.37848,2.42981 l -0.20776,0.46274 -0.1761,-0.55437 c -0.3782,-1.19056 -1.07254,-2.16914 -1.95438,-2.75447 -0.30669,-0.20357 -0.57376,-0.37013 -0.59348,-0.37013 -0.0197,0 -0.0182,0.47777 0.003,1.0617 0.0331,0.89507 0.004,1.17191 -0.18648,1.76389 -0.12418,0.3862 -0.25717,0.70219 -0.29553,0.70219 -0.0384,0 -0.14519,-0.23935 -0.23741,-0.53188 -0.19086,-0.60548 -0.76263,-1.60164 -1.15671,-2.01526 -0.30657,-0.32177 -1.31354,-1.03463 -1.37333,-0.97221 -0.0221,0.0231 0.001,0.29143 0.0514,0.59634 0.18393,1.11253 -0.14522,2.49699 -0.84157,3.53979 -0.77234,1.15659 -2.33457,2.1845 -4.1085,2.70331 -5.55853,1.62565 -9.38412,5.01062 -11.02458,9.7548 -0.49304,1.42588 -0.66749,2.4512 -0.66749,3.92321 0,1.44876 -0.10836,1.81476 -0.6334,2.13925 -0.26109,0.16136 -1.43932,0.63738 -1.52424,0.61581 -0.005,-0.001 -0.27084,-0.10989 -0.59035,-0.24129 z m 1.85035,-6.45909 c 0.6245,-2.05116 1.1714,-3.77786 1.21534,-3.83713 0.0439,-0.0593 0.80687,-0.42127 1.69539,-0.80445 0.88852,-0.38318 1.61549,-0.72528 1.61549,-0.76022 0,-0.0349 -0.6917,-0.25403 -1.5371,-0.48686 -0.84541,-0.23283 -1.6117,-0.44476 -1.70286,-0.47095 -0.10707,-0.0308 -0.23536,-0.3051 -0.3624,-0.77496 -0.10816,-0.40004 -0.62321,-2.32598 -1.14457,-4.27987 -0.52135,-1.95389 -0.97181,-3.55273 -1.00103,-3.55297 -0.0424,-2.9e-4 -0.79023,2.75238 -2.23473,8.22616 -0.0775,0.29357 -0.18428,0.35565 -1.61898,0.94102 -0.84482,0.3447 -1.56771,0.65683 -1.60643,0.69363 -0.0387,0.0368 0.67476,0.33216 1.58549,0.65636 1.58597,0.56455 1.6596,0.60286 1.74373,0.90714 1.28335,4.64179 2.09086,7.40522 2.14673,7.34651 0.0388,-0.0407 0.58143,-1.75226 1.20593,-3.80341 z"
       id="path5903"
       inkscape:connector-curvature="0" />
    <rect
       style="opacity:1;fill:none;fill-opacity:0.6;stroke:#b10000;stroke-width:0.53149606;stroke-miterlimit:4;stroke-dasharray:none;stroke-opacity:0"
       id="rect4209"
       width="80.180855"
       height="79.928322"
       x="0"
       y="399.47165" />
    <rect
       style="opacity:1;fill:none;fill-opacity:0.6;stroke:#b10000;stroke-width:0.53149605;stroke-miterlimit:4;stroke-dasharray:none;stroke-opacity:0"
       id="rect4211"
       width="80.180855"
       height="80.307129"
       x="-0.12626907"
       y="399.21912" />
  </g>
</svg>
